<svg xmlns="http://www.w3.org/2000/svg" viewBox="0 0 200 200" width="200" height="200" role="img" aria-label="Luyando Mooya's Kitchen"><title>Luyando Mooya's Kitchen</title><path d="M100.00 10.00 A13.45 13.45 0 0 1 121.54 12.62 A13.45 13.45 0 0 1 141.83 20.31 A13.45 13.45 0 0 1 159.68 32.63 A13.45 13.45 0 0 1 174.07 48.87 A13.45 13.45 0 0 1 184.15 68.09 A13.45 13.45 0 0 1 189.34 89.15 A13.45 13.45 0 0 1 189.34 110.85 A13.45 13.45 0 0 1 184.15 131.91 A13.45 13.45 0 0 1 174.07 151.13 A13.45 13.45 0 0 1 159.68 167.37 A13.45 13.45 0 0 1 141.83 179.69 A13.45 13.45 0 0 1 121.54 187.38 A13.45 13.45 0 0 1 100.00 190.00 A13.45 13.45 0 0 1 78.46 187.38 A13.45 13.45 0 0 1 58.17 179.69 A13.45 13.45 0 0 1 40.32 167.37 A13.45 13.45 0 0 1 25.93 151.13 A13.45 13.45 0 0 1 15.85 131.91 A13.45 13.45 0 0 1 10.66 110.85 A13.45 13.45 0 0 1 10.66 89.15 A13.45 13.45 0 0 1 15.85 68.09 A13.45 13.45 0 0 1 25.93 48.87 A13.45 13.45 0 0 1 40.32 32.63 A13.45 13.45 0 0 1 58.17 20.31 A13.45 13.45 0 0 1 78.46 12.62 A13.45 13.45 0 0 1 100.00 10.00Z" fill="#A7B97E"/><circle cx="100" cy="100" r="80" fill="#FFFBF4"/><path d="M34 96.5 25.3 95.7 25.5 94 32.6 94.7 33 90.8 34.5 91Z M36.8 81.7Q36.5 82.7 35.8 83.3Q35.2 84 34.4 84.2Q33.5 84.4 32.5 84.1L27.2 82.6L27.7 80.9L33 82.5Q33.5 82.6 34 82.5Q34.4 82.4 34.8 82.1Q35.1 81.7 35.3 81.2Q35.4 80.6 35.3 80.2Q35.2 79.7 34.9 79.4Q34.6 79 34 78.9L28.7 77.3L29.2 75.7L34.5 77.2Q35.5 77.5 36.1 78.2Q36.7 78.8 36.9 79.7Q37.1 80.6 36.8 81.7Z M41.3 69.9 38 68.1 32.1 68.5 33 66.8 36.9 66.6 34.9 63.2 35.8 61.5 38.8 66.6 42.1 68.3Z M46.4 61.2 41.9 53 43.1 51.6 52 54.5 50.8 55.9 48.9 55.2 46.6 58 47.6 59.8ZM45.8 56.6 47.3 54.7 44.1 53.6Z M56.4 50.3 51 43.4 52.4 42.3 59.4 44.3 55.8 39.7 57.2 38.6 62.5 45.5 61.2 46.6 54.1 44.5 57.8 49.2Z M68.5 41.9 64.7 34 67.2 32.8Q68.4 32.2 69.6 32.3Q70.8 32.4 71.7 33Q72.7 33.6 73.2 34.8Q73.8 35.9 73.7 37.1Q73.6 38.2 72.9 39.2Q72.2 40.1 71 40.7ZM69.3 39.7 70.3 39.3Q70.9 39 71.2 38.6Q71.6 38.2 71.8 37.7Q72 37.2 71.9 36.6Q71.9 36.1 71.7 35.5Q71.4 35 71 34.6Q70.6 34.3 70.1 34.1Q69.6 33.9 69 34Q68.5 34 67.9 34.3L66.9 34.7Z M85.1 35.8Q83.9 36.1 82.7 35.8Q81.6 35.5 80.8 34.6Q80 33.8 79.7 32.5Q79.4 31.2 79.8 30.1Q80.1 28.9 80.9 28.1Q81.8 27.3 83.1 27Q84.3 26.7 85.5 27.1Q86.6 27.4 87.4 28.3Q88.2 29.2 88.5 30.4Q88.8 31.7 88.4 32.8Q88.1 34 87.3 34.8Q86.4 35.6 85.1 35.8ZM84.8 34.3Q85.6 34.1 86.1 33.6Q86.6 33.1 86.8 32.4Q87 31.7 86.8 30.8Q86.6 30 86.1 29.4Q85.6 28.9 84.9 28.6Q84.2 28.4 83.4 28.6Q82.6 28.8 82.1 29.3Q81.6 29.8 81.4 30.5Q81.2 31.2 81.4 32.1Q81.6 32.9 82.1 33.5Q82.6 34.1 83.3 34.3Q84 34.5 84.8 34.3Z M103.9 34 105 25.3 106.8 25.5 108.9 29.6 111.9 26.2 113.7 26.4 112.6 35.1 110.9 34.9 111.7 28.8 108.5 32.4 106.3 28.2 105.6 34.2Z M123.1 38.3Q121.8 37.9 121.1 37Q120.3 36.1 120.1 34.9Q120 33.7 120.4 32.5Q120.9 31.3 121.8 30.5Q122.7 29.8 123.8 29.6Q125 29.4 126.2 29.8Q127.4 30.3 128.2 31.2Q128.9 32.1 129.1 33.3Q129.3 34.4 128.8 35.6Q128.4 36.9 127.5 37.6Q126.6 38.4 125.4 38.6Q124.3 38.8 123.1 38.3ZM123.6 36.9Q124.4 37.1 125.1 37Q125.8 36.9 126.3 36.4Q126.9 35.8 127.2 35Q127.5 34.2 127.4 33.5Q127.3 32.7 126.9 32.2Q126.4 31.6 125.7 31.3Q124.9 31 124.2 31.2Q123.5 31.3 122.9 31.8Q122.4 32.3 122.1 33.1Q121.8 33.9 121.9 34.7Q122 35.4 122.4 36Q122.9 36.6 123.6 36.9Z M136.3 45Q135.2 44.3 134.6 43.3Q134.1 42.2 134.2 41.1Q134.3 39.9 135 38.8Q135.7 37.7 136.8 37.1Q137.8 36.6 139 36.7Q140.1 36.8 141.2 37.5Q142.3 38.2 142.8 39.2Q143.4 40.3 143.3 41.4Q143.2 42.6 142.5 43.7Q141.7 44.8 140.7 45.4Q139.7 45.9 138.5 45.8Q137.4 45.8 136.3 45ZM137.1 43.7Q137.8 44.2 138.5 44.2Q139.2 44.2 139.9 43.8Q140.5 43.5 141 42.8Q141.5 42 141.6 41.3Q141.6 40.5 141.3 39.9Q141 39.2 140.4 38.8Q139.7 38.3 139 38.3Q138.2 38.3 137.6 38.7Q136.9 39 136.5 39.7Q136 40.5 135.9 41.2Q135.8 42 136.1 42.6Q136.5 43.3 137.1 43.7Z M146.5 53.2 149.2 50.6 150.6 44.8 152 46.2 151 50 154.8 49.1 156.1 50.5 150.4 51.8 147.7 54.4Z M153.2 60.7 162.4 58.9 163.4 60.4 157.9 68 156.9 66.5 158.1 64.8 156.2 61.8 154.2 62.2ZM157.8 61.5 159.1 63.5 161.1 60.8Z M165.5 70.6 168.5 70.1 169.2 71.7 166 71.7Z M163.8 83.7Q163.6 83.1 163.7 82.5Q163.7 81.9 163.8 81.4Q164 80.9 164.3 80.5Q164.6 80.1 164.9 79.9L165.8 81.4Q165.5 81.7 165.3 82.2Q165.1 82.7 165.2 83.3Q165.4 83.9 165.8 84.2Q166.2 84.6 166.6 84.4Q167 84.3 167.2 84Q167.4 83.6 167.4 83L167.4 81.8Q167.4 81.1 167.6 80.6Q167.8 80 168.2 79.6Q168.6 79.3 169.2 79.1Q170.5 78.8 171.3 79.4Q172.2 80 172.6 81.5Q172.8 82.3 172.7 83Q172.6 83.6 172.3 84.2Q172 84.7 171.4 85.1L170.5 83.6Q170.9 83.3 171.1 82.9Q171.3 82.4 171.1 81.8Q171 81.2 170.6 80.9Q170.2 80.6 169.7 80.8Q169.3 80.9 169.2 81.2Q169 81.5 169 82L169 83.2Q169 84.4 168.5 85.2Q168 85.9 167.1 86.2Q166.4 86.4 165.7 86.1Q165 85.9 164.5 85.3Q164.1 84.7 163.8 83.7Z M166.1 101.2 174.8 101.8 174.7 103.5 171.2 103.3 174.5 106.7 174.3 108.9 170.6 105 165.6 108.5 165.7 106.4 169.5 103.8 168.9 103.1 166 102.9Z M164.4 114.5 172.9 116.5 172.5 118.2 164 116.1Z M161.3 124.5 167.9 127.2 168.9 124.8 170.4 125.4 167.7 131.8 166.3 131.2 167.3 128.8 160.6 126.1Z M154.4 137.1Q155.1 136 156.2 135.5Q157.2 135 158.4 135.1Q159.5 135.2 160.6 136Q161.7 136.7 162.3 137.7Q162.8 138.8 162.7 139.9Q162.7 141 161.9 142.1Q161.4 142.9 160.7 143.3Q160.1 143.8 159.3 143.9Q158.5 144.1 157.7 144L158.1 142.3Q158.6 142.4 159.1 142.3Q159.5 142.2 159.9 141.9Q160.4 141.7 160.6 141.2Q161.1 140.6 161.1 139.9Q161.1 139.2 160.7 138.5Q160.4 137.9 159.7 137.4Q158.9 136.9 158.2 136.8Q157.4 136.7 156.8 137Q156.1 137.3 155.7 137.9Q155.4 138.4 155.3 138.9Q155.3 139.4 155.4 139.8Q155.5 140.3 155.7 140.8L154.4 141.8Q153.9 141.1 153.8 140.3Q153.6 139.5 153.8 138.6Q153.9 137.8 154.4 137.1Z M148.2 145.2 154.3 151.5 153 152.7 150.6 150.2 147.7 153 150.1 155.5 148.9 156.7 142.8 150.4 144.1 149.2 146.6 151.8 149.6 149.1 147 146.4Z M137.3 154.5 141.9 162 137.2 164.9 136.4 163.6 139.6 161.5 138.6 159.8 135.8 161.6 135 160.3 137.8 158.6 136.7 156.8 133.4 158.8 132.5 157.5Z M126.4 160.6 129.5 168.8 127.8 169.4 121.8 165.4 123.8 170.9 122.2 171.5 119.2 163.3 120.8 162.7 126.9 166.8 124.8 161.2Z M102.6 168Q103 168 103.3 168.2Q103.7 168.4 103.9 168.7Q104.1 169.1 104.1 169.5Q104.1 169.9 103.9 170.2Q103.7 170.6 103.4 170.8Q103.1 171 102.7 171Q102.2 171 101.9 170.8Q101.6 170.6 101.3 170.3Q101.1 170 101.1 169.6Q101.1 169.2 101.3 168.8Q101.5 168.5 101.8 168.3Q102.1 168 102.6 168Z M85.6 164.5 83.2 172.9 81.5 172.5 79 165.6 77.4 171.3 75.8 170.8 78.2 162.4 79.8 162.9 82.3 169.8 84 164.1Z M71.7 159.7 67.6 167.4 65.1 166.1Q63.9 165.5 63.3 164.5Q62.7 163.5 62.6 162.4Q62.6 161.2 63.2 160.1Q63.8 159 64.8 158.4Q65.8 157.8 66.9 157.8Q68.1 157.8 69.3 158.4ZM69.5 160.3 68.5 159.8Q68 159.5 67.4 159.5Q66.9 159.4 66.4 159.6Q65.9 159.7 65.4 160.1Q65 160.4 64.7 160.9Q64.4 161.5 64.4 162Q64.3 162.5 64.5 163.1Q64.7 163.6 65 164Q65.4 164.4 65.9 164.7L66.8 165.2Z M57 149.9Q58 150.7 58.4 151.8Q58.8 152.9 58.6 154.1Q58.3 155.2 57.5 156.2Q56.6 157.3 55.5 157.7Q54.4 158 53.3 157.8Q52.1 157.6 51.1 156.8Q50.1 155.9 49.7 154.8Q49.4 153.7 49.6 152.5Q49.8 151.4 50.7 150.4Q51.5 149.4 52.6 149Q53.7 148.6 54.9 148.8Q56 149 57 149.9ZM56 151.1Q55.4 150.5 54.7 150.4Q54 150.3 53.3 150.6Q52.6 150.9 52 151.5Q51.4 152.2 51.3 152.9Q51.1 153.7 51.3 154.4Q51.5 155 52.2 155.6Q52.8 156.1 53.5 156.2Q54.2 156.3 54.9 156Q55.6 155.8 56.2 155.1Q56.7 154.5 56.9 153.7Q57.1 153 56.8 152.3Q56.6 151.6 56 151.1Z M49.3 142.3 42.3 147.6 41.3 146.3 47 141.9 44.6 138.8 45.9 137.9Z M42.9 133.4 33.5 134.2 32.7 132.6 39 125.6 39.8 127.2 38.4 128.7 40 132 42.1 131.8ZM38.4 132.1 37.3 129.9 35 132.4Z M32.7 110.4Q32.8 110.8 32.6 111.2Q32.5 111.6 32.2 111.8Q31.9 112.1 31.5 112.1Q31.1 112.2 30.7 112Q30.3 111.9 30.1 111.6Q29.9 111.3 29.8 110.9Q29.7 110.5 29.9 110.1Q30 109.7 30.3 109.5Q30.6 109.2 31 109.2Q31.4 109.1 31.8 109.2Q32.2 109.4 32.4 109.7Q32.7 110 32.7 110.4Z" fill="#3B4722"/><circle cx="100" cy="100" r="52" fill="#C9793A"/><path d="M81.3 117H67Q66.1 117 65.8 116.6Q65.4 116.3 65.5 115.7Q65.5 115.2 65.8 114.8Q66.2 114.4 66.7 114.3L68 113.9Q68.7 113.8 69 113.3Q69.4 112.8 69.7 111.8Q69.9 111 70.3 109.4Q70.8 107.9 71.3 106Q71.8 104 72.4 101.8Q73 99.7 73.6 97.5Q74.1 95.4 74.7 93.5Q75.2 91.6 75.5 90.1Q75.9 88.6 76 87.9Q76.2 87.3 76 86.9Q75.8 86.6 75.4 86.4L74 86.1Q73.6 85.9 73.3 85.6Q73 85.3 73 84.8Q73 84.2 73.5 83.8Q73.9 83.4 74.8 83.4H85.7Q86.6 83.4 86.9 83.8Q87.2 84.1 87.2 84.7Q87.2 85.2 86.8 85.6Q86.5 86 86 86.1L84.5 86.5Q84 86.6 83.6 87Q83.3 87.4 83 88.3Q82.7 89.4 82.2 91.1Q81.7 92.8 81.2 94.7Q80.6 96.7 80.1 98.8Q79.5 101 79 103Q78.4 105 78 106.8Q77.5 108.6 77.2 109.9Q76.8 111.3 76.7 111.9Q76.4 113.3 76.9 113.9Q77.4 114.5 78.6 114.5H81.6Q83.1 114.5 84.2 113.9Q85.4 113.3 86.4 112Q87.4 110.6 88.4 108.3Q88.9 107.4 89.3 107Q89.7 106.6 90.2 106.6Q90.9 106.6 91.2 107.1Q91.5 107.5 91.4 108.3Q91.4 110.3 90.9 112Q90.3 113.7 89.5 115Q88.6 116.3 87.5 117Q86.4 117.7 85.1 117.7Q84.5 117.7 84 117.5Q83.5 117.3 82.8 117.2Q82.2 117 81.3 117Z M114.7 107.4 112 108.8 126.3 85.7Q127.1 84.4 128 83.9Q128.9 83.4 129.7 83.4H135.7Q136.5 83.4 136.8 83.7Q137.2 84 137.1 84.7Q137.1 85.3 136.8 85.6Q136.4 86 135.9 86.2L134.6 86.5Q134.1 86.6 133.7 87.1Q133.4 87.5 133.3 88.3Q133.1 89.2 132.8 90.8Q132.5 92.3 132.1 94.3Q131.7 96.2 131.3 98.3Q130.9 100.4 130.5 102.5Q130.1 104.6 129.7 106.5Q129.4 108.3 129.1 109.8Q128.8 111.2 128.7 111.9Q128.6 112.8 128.8 113.3Q129 113.8 129.5 114L130.8 114.3Q131.3 114.5 131.5 114.8Q131.8 115.1 131.8 115.6Q131.7 116.2 131.3 116.6Q130.9 117 130 117H119.4Q118.5 117 118.2 116.6Q117.9 116.3 117.9 115.7Q117.9 115.1 118.3 114.8Q118.6 114.4 119.1 114.3L120.4 113.9Q121 113.7 121.4 113.2Q121.8 112.8 122 111.8Q122.2 110.6 122.5 109Q122.8 107.4 123.2 105.6Q123.6 103.7 124 101.6Q124.4 99.6 124.8 97.6Q125.2 95.5 125.5 93.6Q125.9 91.7 126.2 90L126.9 90L113.5 111.6Q112.8 112.8 112.2 113.3Q111.6 113.7 110.7 113.7Q110 113.7 109.5 113.2Q109 112.6 108.8 111.4Q108.5 110 108.3 108.3Q108 106.6 107.7 104.8Q107.5 103 107.2 101.1Q106.9 99.2 106.6 97.3Q106.3 95.4 106 93.5Q105.7 91.7 105.4 89.9L106.3 89.8L100.1 111.2Q99.7 112.3 100 113Q100.2 113.7 101 113.9L102.1 114.3Q103.1 114.8 103 115.5Q103 116.2 102.5 116.6Q102 117 101.2 117H94Q93.1 117 92.8 116.6Q92.5 116.3 92.5 115.7Q92.5 115.1 92.9 114.7Q93.2 114.4 93.8 114.2L94.8 113.9Q95.4 113.7 95.8 113.3Q96.3 112.9 96.7 112Q97.1 111.1 97.6 109.4L103.6 88.7Q103.9 87.7 103.8 87.2Q103.6 86.7 103 86.5L101.6 86.1Q101.2 85.8 100.9 85.6Q100.7 85.3 100.7 84.8Q100.7 84.1 101.2 83.8Q101.7 83.4 102.5 83.4H108.3Q109.5 83.4 110.2 84.1Q111 84.8 111.3 86.4Q111.5 87.8 111.8 89.5Q112 91.1 112.3 92.9Q112.6 94.6 112.9 96.5Q113.2 98.3 113.5 100.2Q113.8 102 114.1 103.9Q114.4 105.7 114.7 107.4Z" fill="#FFFBF4"/></svg>
